<svg width="18" height="20" viewBox="0 0 18 20" fill="none" xmlns="http://www.w3.org/2000/svg">
<path d="M15.6162 3.48837C14.1511 1.25581 11.7325 0 9.01158 0C6.31391 0 3.8953 1.25581 2.38367 3.48837C0.872047 5.67442 0.523209 8.46512 1.45344 10.907C1.70926 11.5581 2.1046 12.2326 2.61623 12.8372L8.49995 19.7674C8.63949 19.907 8.77902 20 8.98833 20C9.19763 20 9.33716 19.907 9.4767 19.7674L15.3837 12.8372C15.8953 12.2326 16.3139 11.5814 16.5465 10.907C17.4767 8.46512 17.1279 5.67442 15.6162 3.48837ZM9.01158 11.7209C7.01158 11.7209 5.36042 10.0698 5.36042 8.06977C5.36042 6.06977 7.01158 4.4186 9.01158 4.4186C11.0116 4.4186 12.6627 6.06977 12.6627 8.06977C12.6627 10.0698 11.0348 11.7209 9.01158 11.7209Z" fill="#664EF9"/>
</svg>
